<svg version="1" xmlns="http://www.w3.org/2000/svg" width="2732" height="2732" viewBox="0 0 2049.000000 2049.000000"><path d="M516.7 410.6c-.1.2-1.8.6-3.6.9-4.7.8-13.7 5.3-16.8 8.4-3.1 3.2-6.7 8.7-7.8 12.1-.4 1.4-1.5 4.3-2.5 6.5s-3 6.9-4.5 10.5c-1.5 3.6-3.3 7.8-4 9.5-.7 1.6-3 7-5 12-2 4.9-4.2 10.1-4.8 11.5-.6 1.4-1.1 2.7-1.2 3-.1.3-.6 1.6-1.2 3s-2.3 5.4-3.7 9c-1.5 3.6-3.3 7.8-4.1 9.5-.7 1.6-3.6 8.6-6.4 15.5-2.9 6.9-5.8 13.8-6.5 15.5-3.1 6.8-19.5 45.9-21.2 50.5-.7 1.9-4.9 12-9.4 22.5-4.5 10.4-8.3 19.4-8.4 20-.3 1-3 7.6-4.6 11-1.5 3.3-4.3 10-4.4 10.5-.1.5-3.9 9.5-14.6 35-2.7 6.3-7.2 17.1-10 24-2.9 6.9-5.8 13.8-6.5 15.5-.7 1.6-3.2 7.5-5.5 13-2.2 5.5-4.5 10.9-5 12-.5 1.1-4.4 10.3-8.6 20.5-4.2 10.2-8.2 19.8-8.9 21.5-.7 1.6-2.4 5.7-3.8 9-8 18.8-9.7 23-9.7 24.2 0 .7-.5 1.3-1.2 1.3-.6 0-.8.3-.5.6.4.4 0 1.9-.8 3.3s-4.9 10.9-9.1 21.1c-4.2 10.2-8.2 19.8-8.9 21.5-1.1 2.5-4.2 10-10 24-1.8 4.3-2.9 6.9-11.7 28-4.4 10.4-9.5 22.6-11.3 27-2.6 6.4-11.7 28.1-20.8 49.5-.6 1.4-1.1 2.7-1.2 3-.4 1.3-18 43.4-21.1 50.5-4.4 10.2-12.4 29.6-12.4 30 0 .2-1.1 2.8-2.4 5.7-1.3 2.9-3.4 7.8-4.6 10.8-1.3 3-3.2 7.5-4.3 10-1.1 2.5-2.1 4.7-2.2 5-.4 1.1-2.1 5.2-12.3 29.5-5.7 13.7-11.7 28.3-13.3 32.2-1.6 4-3.3 8.1-3.8 9-.6 1-4.2 9.7-8.2 19.3-3.9 9.6-8.3 20-9.6 23-1.4 3-2.6 5.9-2.8 6.5-.2 1.1-.5 1.7-6.5 16-2.3 5.5-6.5 15.4-9.2 22-2.7 6.6-5.6 13.3-6.3 15-.8 1.6-3.2 7.5-5.5 13-2.2 5.5-4.6 11.1-5.2 12.5-2.8 6.5-6.7 15.8-13.8 33-2.8 6.9-5.5 13.4-6 14.5-.5 1.1-2.1 4.9-3.6 8.5-1.4 3.6-3.4 8.3-4.4 10.5-6.3 14.5-13.4 32.1-13.2 32.7.1.5-.2.8-.8.8-.5 0-1 .6-1 1.4 0 1.2-1.5 5.2-5.5 14.1-4.9 11.2-17.2 41.4-19.6 48.1-3.1 9-5 18.7-4.4 23.1 1.5 11 2.5 13.8 6.7 20.4 3.8 6 10 11.4 16.8 14.9 2.5 1.3 4.6 2.3 4.7 2.2.1 0 2.3.6 4.9 1.4 7.2 2.1 886.6 2.1 893.7-.1 23-6.9 34.7-27.9 29.8-53.2-1.8-9.4-4.8-17.3-19.4-51.3-.5-1.4-1.1-2.7-1.1-3-.1-.3-1.4-3.4-2.9-7-1.6-3.6-3.8-8.8-4.9-11.5-1.2-2.8-2.7-6.4-3.5-8.2-2.1-4.9-7.1-17-10.4-25.3-1.7-4.1-3.8-9.1-4.6-11-2.1-4.8-3.3-7.7-9.3-22-2.9-6.9-5.8-13.9-6.6-15.7-.8-1.7-1.4-3.4-1.4-3.7 0-.3-.9-2.5-2-4.9-2-4.3-22.7-53.7-37.2-88.7-4.4-10.7-9.2-21.9-10.5-24.9-1.4-3-3.6-8.4-5-12-1.3-3.6-3.3-8.3-4.3-10.6-2.3-5.1-5.3-11.9-5.5-12.5-.7-2-1.9-5-3-7.5-.7-1.7-3.4-8-5.9-14-2.5-6.1-9.1-21.8-14.6-35-5.6-13.2-10.3-24.5-10.4-25-.1-.6-1.5-3.6-2.9-6.9-1.5-3.2-2.7-6.2-2.7-6.5 0-.4-1.1-3.1-2.5-5.9-1.4-2.9-2.5-5.6-2.5-6 0-.5-.6-2.2-1.4-3.8-.8-1.6-9.4-22-19.1-45.4-9.8-23.4-18.5-44.3-19.5-46.5-1-2.2-3.3-7.6-5-12-1.7-4.4-4-9.8-5-12-2.7-6-17-40.5-17-41 0-.3-1.3-3.3-2.9-6.7-1.5-3.5-4.3-9.9-6.1-14.3-1.8-4.4-4.1-9.9-5.1-12.2-1.1-2.4-1.9-4.5-1.9-4.7 0-.2-1-2.5-2.2-5.2-1.2-2.7-2.3-5.1-2.3-5.4-.2-.6-.2-.6-6.3-15-2.4-5.8-6-14.3-7.9-19-1.9-4.7-4.1-9.9-4.8-11.5-3.5-7.8-14.5-34.5-14.5-35.2 0-.4-.7-2.1-1.5-3.7-.8-1.5-4.7-10.5-8.6-20-3.9-9.4-7.7-18.5-8.4-20.1-.8-1.7-7.7-18.3-15.5-37s-14.7-35.4-15.5-37c-.7-1.7-2.2-5.3-3.3-8-1.1-2.8-3.2-7.6-4.6-10.7-1.4-3.1-2.6-5.9-2.6-6.2 0-.4-.9-2.8-2.1-5.4-1.2-2.6-2.5-5.6-2.9-6.7-5.4-13-11.4-27.6-12.5-30-1.5-3.5-30.8-73.7-33.7-81-1.2-2.8-3.1-7.3-4.4-10.1-1.2-2.7-3.2-7.5-4.4-10.5-1.1-3-2.7-6.8-3.4-8.4-.8-1.7-5.5-12.8-10.5-24.9-5.1-12-10.3-24.1-11.7-26.8-5.3-10.5-17.7-19.4-30.4-21.8-4.8-.9-15.5-1.2-16.3-.4zm13.9 175.1c2.4 5.9 4.8 11.7 5.4 12.8.5 1.1 11.4 26.7 24.1 57 12.7 30.2 26.7 63.5 31.1 74 4.4 10.4 9.1 21.5 10.3 24.5 1.3 3 4.8 11.3 7.8 18.5 3 7.1 9.1 21.5 13.5 32 11.9 28.4 26.4 62.7 35.2 83.5 4.3 10.2 10.8 25.7 14.5 34.5 3.6 8.8 7.2 17.3 8 19 .7 1.6 3.2 7.5 5.5 13 16.2 38.6 22.4 53.5 24 57 1 2.2 3.4 8 5.4 13 2.1 4.9 4.3 10.3 5.1 12 .7 1.6 2.5 5.9 4 9.5 1.4 3.6 3.2 7.8 4 9.5.7 1.6 12.2 28.9 25.5 60.5s24.8 58.8 25.5 60.5c.8 1.6 4.4 10.2 8 19 3.7 8.8 7.3 17.3 8 19 .7 1.6 2.9 7 5 12 2.1 4.9 4.8 11.4 6.1 14.3 1.3 2.9 2.4 5.5 2.4 5.7 0 .3.9 2.4 1.9 4.8 1.1 2.3 4.3 9.8 7.1 16.7 2.8 6.9 5.7 13.8 6.5 15.5.7 1.6 5 11.8 9.5 22.5s8.8 20.8 9.5 22.5c.8 1.6 4.4 10.2 8 19 3.7 8.8 8.1 19.1 9.7 23 1.7 3.8 3.6 8.3 4.3 10 .7 1.6 3.4 8.2 6 14.5 2.6 6.3 5.5 13.3 6.5 15.5 1 2.2 3.5 8 5.5 13l6 14c1.2 2.7 2.6 6.1 3 7.5.4 1.4 1.6 4.2 2.6 6.2 1.4 2.8 1.6 3.8.7 3.9-3.1.3-740.4.5-741 .2-.7-.3 1.1-5 14.3-36.3 3.8-9.1 7.3-17.4 7.8-18.5 2.2-5.4 3.1-7.3 4.9-11.5 1.1-2.5 4.4-10.1 7.2-17 2.9-6.9 8.7-20.8 13-31 6.4-15.1 47.3-112.2 52.7-125 .8-1.9 2.1-4.9 2.8-6.5.7-1.7 5.4-12.9 10.5-25s9.8-23.4 10.6-25c.7-1.7 6.7-16.1 13.4-32 6.7-16 13.3-31.7 14.7-35 1.4-3.3 3.1-7.4 3.8-9 20.7-49 26.1-61.6 27.3-64.5.9-1.9 1.6-3.7 1.6-4 .1-.6 1.9-4.7 6.1-14.5 1.2-2.8 6.8-16 12.5-29.5 5.6-13.5 10.8-25.9 11.5-27.5 1.5-3.4 44.4-105.1 52.5-124.5 2.9-6.9 6.3-14.9 7.6-17.8 1.3-2.9 2.4-5.5 2.4-5.8 0-.3.6-2 1.4-3.7.8-1.8 3.5-8.2 6.1-14.2 2.5-6.1 5-11.9 5.5-13 .5-1.1 2.8-6.5 5-12 2.3-5.5 5-11.8 6-14 .9-2.2 3.4-8.1 5.5-13 2-5 4.4-10.6 5.2-12.5 1.7-4 2-4.7 6.3-15 1.7-4.1 3.8-8.9 4.5-10.5.7-1.7 2.5-5.9 4-9.5 1.5-3.6 3.3-7.9 4-9.5 2.4-5.5 17.7-41.7 26.5-63 .7-1.7 1.9-4.5 2.8-6.4.8-1.9 2.8-6.6 4.4-10.5 4.7-11.6 6.1-14.6 6.6-14.1.3.2 2.4 5.3 4.8 11.2zM1084.5 424.6c-8.5 1.8-14 4.8-20.8 11.2-11.5 11-14.7 24.4-10.1 42.2 1.5 5.6 5.3 16 9.8 26.5.7 1.6 1.9 4.3 2.6 6 6.6 15.8 15.3 36.4 16.4 38.9.8 1.7 3.7 8.7 6.5 15.6s5.8 13.8 6.6 15.5c.8 1.6 4.9 11.3 9.1 21.5 4.2 10.2 8.4 20.3 9.4 22.5 1.9 4.4 10.7 25.4 14.7 35 1.3 3.3 2.9 6.9 3.4 8 3.9 8.6 16.9 40.2 16.9 41.2 0 .7.4 1.3.9 1.3s1.1 1 1.4 2.2c.5 2.2 6.3 16.6 10.5 25.8 1.1 2.5 4.3 10.1 7.2 17 2.8 6.9 8.8 21 13.2 31.5 4.4 10.4 9.1 21.7 10.5 25 1.3 3.3 3.1 7.3 3.8 9 .7 1.6 11.1 26.2 23 54.5s22.2 52.8 23 54.5c.7 1.6 2.9 7 5 12 2.1 4.9 4.6 10.9 5.6 13.2 1.1 2.3 1.9 4.4 1.9 4.8 0 .3.9 2.4 1.9 4.8 5 10.9 20.1 47.3 20.1 48.4 0 .7.4 1.3.9 1.3s1.1 1 1.4 2.2c.5 2.2 6.3 16.6 10.5 25.8 1.1 2.5 7.2 17.1 13.7 32.5 6.4 15.4 12.3 29.3 13 31 .8 1.6 6.8 16 13.5 32 11.2 26.6 15 35.8 18.5 44 .7 1.6 4.3 10.2 8 19 3.6 8.8 7.2 17.3 8 19 5.7 12.8 40.5 96.3 40.5 97.3 0 .7.4 1.2.9 1.2s1.1 1 1.4 2.2c.5 2.2 7.1 18.6 10.2 25.2.8 1.7 10 23.6 20.5 48.6s19.7 46.8 20.5 48.5c.7 1.6 2.7 6.4 4.3 10.5 1.7 4.1 3.7 8.8 4.6 10.5.9 1.6 1.6 3.8 1.6 4.7 0 1 .5 1.8 1 1.8.6 0 1 .6 1 1.3 0 1 11.7 29.5 16.7 40.7.9 1.9 1.7 3.7 1.8 4 0 .3 1.3 2.9 2.9 5.9 3.7 7.2 10.7 13.8 18.6 17.5 5.7 2.7 7.5 3 15.5 3 4.9-.1 9.7-.3 10.5-.6.8-.3 2.9-.9 4.5-1.3 1.7-.5 4.7-1.9 6.7-3.2 2.1-1.2 4.1-2.3 4.5-2.4.5 0 2.7-2.4 5.1-5.2 4.9-6 8.5-13.1 17.2-34.2 3.4-8.3 6.8-16.4 7.5-18 .8-1.7 5-11.6 9.3-22.1 4.4-10.4 8.9-21.1 10.1-23.7 1.1-2.5 2.1-5.2 2.1-5.9 0-.8.4-1.8.8-2.4.5-.5 2.6-5 4.6-9.9 2.1-5 4.3-10.4 5.1-12 .7-1.7 3.6-8.6 6.4-15.5 2.9-6.9 5.8-13.9 6.6-15.5.7-1.7 4.1-9.8 7.5-18 3.4-8.3 7-16.8 8-19 .9-2.2 2.7-6.5 4-9.5 1.2-3 3.1-7.3 4.1-9.6 1-2.2 2.8-6.5 3.9-9.5 1.2-3 2.8-6.8 3.5-8.4.7-1.7 3.6-8.4 6.3-15 5.9-14.1 22.4-53.6 53.7-128 27-64.1 24.8-58.8 25-60 .2-.6 1.4-3.5 2.8-6.5s5.5-12.7 9.1-21.5c3.6-8.8 7.2-17.4 8-19 .7-1.7 1.8-4.1 2.4-5.5.6-1.4 8.2-19.4 16.8-40 8.6-20.6 22.1-53 30.1-72 7.9-19 18.3-43.7 23-55 4.7-11.3 9.3-22.3 10.3-24.5 1-2.2 7.1-16.6 13.5-32 6.4-15.4 12.3-29.4 13-31 1.9-4.1 14.3-33.8 16.7-40 1.1-2.8 3.1-7.4 4.4-10.3 1.3-2.9 2.4-5.9 2.4-6.7 0-.8.5-1.5 1-1.5.6 0 1-.6 1-1.3 0-.9 28.9-70.6 36.5-88.2.7-1.7 3.2-7.5 5.5-13s4.5-10.9 5-12c.5-1.1 2.3-5.4 4.1-9.5 1.7-4.1 3.7-8.9 4.4-10.5.7-1.7 3.4-8.2 6-14.5 2.6-6.3 5.1-12 5.5-12.5.5-.6.8-1.2.7-1.5-.2-.5 1-3.3 10.7-26 5.2-12.3 6.8-16.1 7.2-17.5.1-.6 2.7-6.6 5.7-13.5 9.6-22.3 12.5-32.2 12.5-43.7 0-17.9-7.8-32.3-20.7-38.1-4.5-2-7.6-2.6-15.2-2.8-20.9-.7-36 7.5-44.2 24.1-2.7 5.4-4.8 10.3-13.3 31.2-3 7.5-6.4 15.5-7.4 17.7-1 2.3-4.8 11.5-8.5 20.6-3.7 9.1-7.5 18.3-8.5 20.5-3.6 8.3-6.3 14.8-18 43.5-13.8 33.6-13 31.7-16.4 39.2-1.4 3.1-2.6 6-2.6 6.3 0 .4-2.2 5.9-4.9 12.3-8.6 20.5-14.8 35.3-20.6 49.7-3.1 7.7-6.5 15.8-7.5 18-1 2.2-3.4 8-5.4 13-3.4 8.3-5.3 12.8-7.6 18-.8 1.8-15.1 36.2-20.5 49.5-9 22.1-20 48.6-23 55.5-.7 1.6-2.3 5.5-3.5 8.5-1.2 3-3.3 7.9-4.6 10.8-1.3 2.9-2.4 5.7-2.4 6.2 0 .6-.4 1.8-1 2.8-.5.9-6.4 15-13.1 31.2-11.2 27.4-13.7 33.2-16 38.5-.5 1.1-3.8 9.2-7.4 18-3.6 8.8-7.3 17.6-8.1 19.5-1.7 3.8-2.2 5.2-5 12-.9 2.5-2.5 6.3-3.5 8.5-.9 2.2-3.3 8-5.4 13-2 4.9-4.3 10.3-5 12-.7 1.6-7.7 18.5-15.5 37.5s-14.9 36-15.6 37.8c-.8 1.7-2.1 4.9-3 7-.8 2-1.9 4.6-2.4 5.7-.5 1.1-5.7 13.7-11.6 28-9.8 24-15.2 37-17.4 42-.5 1.1-3.6 8.7-7 17-3.4 8.2-8.1 19.7-10.5 25.5-11.3 26.9-34.5 83-34.5 83.5 0 .2-1.1 2.9-2.5 5.9-1.4 3-2.5 5.7-2.5 6 0 .3-1.1 2.9-2.4 5.8-2.5 5.8-3.8 8.9-11.6 27.8-2.8 6.9-5.8 13.8-6.5 15.5-.7 1.6-3 7.2-5 12.3-2.1 5-4.1 9.4-4.5 9.7-.4.3-1.4-1.5-2.1-4-.7-2.5-1.7-4.5-2.1-4.5-.4 0-.8-.6-.8-1.4 0-.7-1.1-3.8-2.3-6.7-2.4-5.5-3.9-9-4.2-9.9-.3-.8-2.5-6.2-3.9-9.5-2.6-6-6.7-15.6-21.6-51.5-8.4-20.1-15.9-38.1-16.7-40-2.9-6.7-4.1-9.5-7.7-18.5-2-5-4.1-9.9-4.6-11-.5-1.1-2.3-5.4-4-9.5-1.7-4.1-3.5-8.4-4-9.5-.5-1.1-3.2-7.6-6-14.5s-5.7-13.9-6.5-15.5c-1.5-3.4-10-23.9-15-36-1.8-4.4-8.1-19.5-14-33.5s-12.3-29.3-14.2-34c-1.8-4.7-4-9.9-4.7-11.5-.8-1.7-10.5-24.8-21.6-51.5-11.1-26.7-20.8-49.9-21.5-51.5-1.6-3.5-4.5-10.5-11.5-27.5-2.9-6.9-5.9-14.1-6.7-16-.8-1.9-1.9-4.4-2.4-5.5-.4-1.1-5.6-13.5-11.4-27.5-10.4-25.1-14.4-34.6-17-40.5-.7-1.7-3.4-8.2-5.9-14.5-2.6-6.3-5.1-12.4-5.6-13.5-2.4-5.1-6.9-15.6-6.9-16-.1-.3-.7-2-1.4-3.8-.8-1.7-5.8-13.8-11.1-26.7-5.4-12.9-10.6-25.4-11.7-27.7-1-2.4-1.9-4.5-1.9-4.7 0-.2-1-2.5-2.2-5.2-1.2-2.7-2.3-5.1-2.3-5.4-.2-.8-10.8-26.2-29-69.5-3.5-8.3-8.6-20.6-11.5-27.5-2.8-6.9-5.7-13.9-6.5-15.5-.7-1.7-2.3-5.5-3.5-8.5-1.2-3-2.8-6.9-3.5-8.5-.8-1.7-7.1-16.7-14-33.5-7-16.8-13.4-32.1-14.2-34-2-4.6-3.3-7.7-7.8-18.5-2-5-4.6-10.9-5.6-13.2-1-2.4-1.9-4.5-1.9-4.7 0-.2-.8-2.1-1.7-4.2-.9-2.2-1.7-4.1-1.8-4.4-.1-.3-.6-1.6-1.2-3s-4.1-9.7-7.8-18.5c-6.8-16.3-9.4-21.7-10.7-22.3-.5-.2-.8-.9-.8-1.6 0-1.9-11.8-13.7-16.3-16.3-8.1-4.8-20.5-6.3-32.2-3.7z"/></svg>