<svg width="666" height="105" viewBox="0 0 666 105" fill="none" xmlns="http://www.w3.org/2000/svg">
<path d="M0.882812 105V2.625H29.7812C38.6875 2.625 46.5625 4.59375 53.4062 8.53125C60.25 12.4688 65.5234 18.0703 69.2266 25.3359C72.9766 32.6016 74.875 40.9453 74.9219 50.3672V56.9062C74.9219 66.5625 73.0469 75.0234 69.2969 82.2891C65.5938 89.5547 60.2734 95.1328 53.3359 99.0234C46.4453 102.914 38.4062 104.906 29.2188 105H0.882812ZM14.3828 13.7344V93.9609H28.5859C38.9922 93.9609 47.0781 90.7266 52.8438 84.2578C58.6562 77.7891 61.5625 68.5781 61.5625 56.625V50.6484C61.5625 39.0234 58.8203 30 53.3359 23.5781C47.8984 17.1094 40.1641 13.8281 30.1328 13.7344H14.3828ZM245.191 93.9609H293.706V105H231.62V2.625H245.191V93.9609ZM382.033 13.7344H349.127V105H335.697V13.7344H302.861V2.625H382.033V13.7344ZM621.855 87.0703L651.105 2.625H665.87L627.902 105H615.948L578.05 2.625H592.745L621.855 87.0703Z" fill="white"/>
<rect x="118" y="94" width="64" height="11" fill="white"/>
<rect x="118" y="48" width="64" height="11" fill="white"/>
<path d="M118 3H182V14H118V3Z" fill="white"/>
<path d="M455.227 17.9297L425.977 102.375H411.211L449.18 0H461.133L499.031 102.375H484.336L455.227 17.9297Z" fill="white"/>
</svg>
